/* XPM */
static char * 0_xpm[] = {
"20 30 11 1",
" 	c None",
".	c #94E623",
"+	c #94E724",
"@	c #94E824",
"#	c #93E724",
"$	c #94E723",
"%	c #95E824",
"&	c #93E723",
"*	c #94E725",
"=	c #95E624",
"-	c #94E624",
"                    ",
"                    ",
"                    ",
"                    ",
"                    ",
"                    ",
"       .+++@#       ",
"      ++++++++      ",
"     +++    +++     ",
"    $++      +++    ",
"    ++       %++    ",
"   #++        ++    ",
"   +++        +++   ",
"   ++@        +++   ",
"   ++&        +++   ",
"   ++@        +++   ",
"   ++@        +++   ",
"   ++&        +++   ",
"   ++@        +++   ",
"   +++        +++   ",
"   #++        ++    ",
"    ++       %++    ",
"    +++      +++    ",
"     +++    +++     ",
"      ++++++++      ",
"       *=++-+       ",
"                    ",
"                    ",
"                    ",
"                    "};
