/* XPM */
static char * 2_xpm[] = {
"20 30 14 1",
" 	c None",
".	c #93E824",
"+	c #95E723",
"@	c #94E724",
"#	c #94E624",
"$	c #93E724",
"%	c #95E824",
"&	c #94E725",
"*	c #94E823",
"=	c #95E725",
"-	c #94E623",
";	c #93E723",
">	c #94E824",
",	c #95E724",
"                    ",
"                    ",
"                    ",
"                    ",
"                    ",
"                    ",
"     .+@@@@@        ",
"   #@@@@@@@@@$      ",
"   #@@     %@@@     ",
"   $        #@@     ",
"             @@&    ",
"             @@@    ",
"             @@$    ",
"             @@*    ",
"            @@@     ",
"           @@@=     ",
"          -@@+      ",
"         #@@@       ",
"        ;@@#        ",
"       $@@&         ",
"       @@&          ",
"      @@#           ",
"     @@>            ",
"    @@,             ",
"   @@@@@@@@@@@@@    ",
"   @@@@@@@@@@@@@    ",
"                    ",
"                    ",
"                    ",
"                    "};
