/* XPM */
static char * 5_xpm[] = {
"20 30 11 1",
" 	c None",
".	c #94E724",
"+	c #94E723",
"@	c #94E725",
"#	c #93E724",
"$	c #95E723",
"%	c #95E724",
"&	c #94E623",
"*	c #93E824",
"=	c #95E824",
"-	c #94E824",
"                    ",
"                    ",
"                    ",
"                    ",
"                    ",
"                    ",
"    ...........     ",
"    ...........     ",
"    ...             ",
"    ...             ",
"    ...             ",
"    ...             ",
"    ...+...@        ",
"    .........#      ",
"    .      ....     ",
"            ....    ",
"             ...    ",
"             $..    ",
"              ..    ",
"              ..    ",
"             ...    ",
"             ...    ",
"            %..&    ",
"   @*      ....     ",
"   +..........      ",
"     =-.....        ",
"                    ",
"                    ",
"                    ",
"                    "};
