/* XPM */
static char * 6_xpm[] = {
"20 30 14 1",
" 	c None",
".	c #94E724",
"+	c #93E824",
"@	c #93E724",
"#	c #94E725",
"$	c #94E723",
"%	c #95E624",
"&	c #93E723",
"*	c #94E624",
"=	c #95E725",
"-	c #94E824",
";	c #95E723",
">	c #95E724",
",	c #93E623",
"                    ",
"                    ",
"                    ",
"                    ",
"                    ",
"                    ",
"        .....+      ",
"       .........    ",
"     ....     @@    ",
"     ..#            ",
"    ..$             ",
"    ..              ",
"   %..              ",
"   ...  &...*       ",
"   ..@=.......*     ",
"   .....    #..@    ",
"   ....      *..    ",
"   ...$       ..@   ",
"   ...        -..   ",
"   ...        ...   ",
"   @..        -..   ",
"    ..=       ..;   ",
"    >..      *..    ",
"     -..    ,..-    ",
"      &........     ",
"        ...&*       ",
"                    ",
"                    ",
"                    ",
"                    "};
