/* XPM */
static char * moves_xpm[] = {
"110 30 17 1",
" 	c None",
".	c #94E724",
"+	c #95E724",
"@	c #94E725",
"#	c #93E824",
"$	c #95E623",
"%	c #94E624",
"&	c #94E824",
"*	c #93E724",
"=	c #94E723",
"-	c #93E623",
";	c #95E723",
">	c #94E823",
",	c #95E824",
"'	c #95E825",
")	c #95E624",
"!	c #93E723",
"                                                                                                              ",
"                                                                                                              ",
"                                                                                                              ",
"                                                                                                              ",
"                                                                                                              ",
"                                                                                                              ",
"                                                                                                              ",
"                                                                                                              ",
"                                                                                                              ",
"                                                                                                              ",
"                                                                                                              ",
"         ..   ...+      ...@           +....#      $..         ..@       .%&..%          ......               ",
"         .. *......=  *......-       .........      ..         ..       ........;      .........+      ..     ",
"         ..%.>   ,.. '.    $..      +..%    ...     ...       @..     '...    +..     +..      )*      ..     ",
"         ...      ....      ..@     ..,      ...    *..       ..%     ...      ...    ..*              ..     ",
"         ...      >..%      >..    ...        ..     ..       ..     ...        ...   ..                      ",
"         ..        ..        ..    ..%        ..&    %..     %.=     ...        +..   &..                     ",
"         ..        ..        ..    ..'        ..%     ..     ..+     ..@        @.!    .....                  ",
"         ..        ..        ..    ..         ..*     ..>   ...      ..............     &......               ",
"         ..        ..        ..    ..'        ..%     +..   ..@      ..............        ......             ",
"         ..        ..        ..    ..%        ..&      ..   ..       ...                      %..             ",
"         ..        ..        ..    ...        ..       ..@ ..&       ..%                       ..             ",
"         ..        ..        ..     ..,      !..       '.. ...        ..                       ..             ",
"         ..        ..        ..     +..%    ...         .....         !..#       .    .%      ..&      ..     ",
"         ..        ..        ..      !........          *....           ..........    ..........       ..     ",
"         ..        ..        ..        ....*#            ...              ;.....'       .....;         ..     ",
"                                                                                                              ",
"                                                                                                              ",
"                                                                                                              ",
"                                                                                                              "};
