/* XPM */
static char * lava_rock_l_1_xpm[] = {
"31 80 11 1",
" 	c #973724",
".	c #2D1836",
"+	c #523040",
"@	c #442745",
"#	c #3A1E3B",
"$	c #633B43",
"%	c #865349",
"&	c #C67639",
"*	c #C65139",
"=	c #402341",
"-	c #CAA64D",
"             .+@@#######@###@.#",
"             .$%+#@#@$$+@#+$$#.",
"             .$$$+#@%$$+#+%$+@.",
"             .+$$+#+$$++++$++@.",
"             .+++$@+++++#@++@#.",
"             .@++@#@++@@#@@@#@.",
"              .@@+++@@@#@+++##.",
"               .+++$+@@@+++$#..",
"              #@++$+@##+++$##.@",
"             #+%$$+@###@$$@##.$",
"             #%$+@@@#++@@@$@#.+",
"             .$++@@#++$@+$$+#.@",
"             .@@@##++$+#$+++#.#",
"              .@@##$$+@#@++@#.@",
"               .@@#@@@@#@@@@##.",
"              .#@@@#@@@##@@###.",
"             #++##@##@@###++#.+",
"             .++##@@#@@##++$#.$",
"            .@@#++#@#@@#++$+#.$",
"            .@@#$++###@##++##.+",
"            .++#@$+####@##@##.+",
"            .++#@@@##++@##@##.@",
"             .@##@@##+$@######.",
"             .@@#@@#+$@##++##++",
"              .@##@#+@@#++@#@+#",
"              .###@#@@##@@@#@#+",
"             .#@@#@#@@#@@@##@#%",
"             .@@@@##@@##@@#@#.$",
"             .@@@@####@@##@@@.@",
"             .#@@#####@@@#@@@#.",
"              .########@@######",
"               .##############.",
"               .#@############+",
"               .#@@##@##++@##.+",
"              .##@@@@@#++@@#.@@",
"             .####@@@@#@@@@#.@@",
"             .#####@@###@@#@.++",
"             .###@#@#######@.++",
"             .###@@##@@##@###.@",
"             .####@@#@@##@###.@",
"          &   .###@##@##@@####.",
"              &.##@#####@@####.",
"            & *.=#######@@###.#",
"       &     -.==#######@####.@",
"       &     &.==############.@",
"        &    *.===###########.#",
"        &   & -.=#############.",
"           &  &-.####-&&#######",
"           *   &-&&&&*  *&&&&*-",
"          * &  *  &  &&&  &  &*",
"            *&*    &&    & & &.",
"          &              &  &.#",
"           &&      &      &&-.#",
"                   &     &- &.#",
"                        &  & .#",
"                        &   -.#",
"                        -   &.#",
"                         &  &&.",
"                     &  & && &.",
"                    &  -    -.=",
"                   &   &    &.=",
"                   &   &    &.=",
"                        &   &-.",
"                          && &-",
"                         &    &",
"                         -     ",
"                          &  -&",
"                     &     &&  ",
"                      &     &  ",
"                            -  ",
"                             & ",
"                              &",
"                         &     ",
"                          &&   ",
"                               ",
"                               ",
"                               ",
"      *                        ",
"                               ",
"                               "};
