/* XPM */
static char * lava_rock_m_5_xpm[] = {
"48 80 11 1",
" 	c #3A1E3B",
".	c #523040",
"+	c #633B43",
"@	c #442745",
"#	c #2D1836",
"$	c #865349",
"%	c #402341",
"&	c #C67639",
"*	c #973724",
"=	c #CAA64D",
"-	c #C65139",
" ............................................+++",
"...........................................@@@..",
".......@@@...++.......................++.@@@@...",
"......@@..@.+++......@..@@...........++....@....",
"......@...@.++........@@@...@..............@....",
".+....@..@@............@.....@..................",
"@.+..@  @@.............@.....@  @...............",
"#@@ @..@ @@............@....@ @@ .........+..++.",
"...@.+.....@..+......+.@@....@@@@...+...++.@..++",
"...@.++........++...+.@......@@@.....+++.@@@...@",
"+.@ @.++........++++.@......@ @.......@@@@@.....",
".@@......@........@.@........@......... @ .....+",
"@@......@..........@ ........@.......... ......+",
"  +.....@..........@ +.......@.+........@.....+.",
"@ .++....@+...+....+@.+...... @.++...... ....+.@",
"@  .. +++ @+. .+..+. @.++.+.    ....      ....@ ",
"@@       @   @        @.... @@..    @@@@        ",
"$. @ @++.@ .++ @@ @@   @@@@   +.. @@...@ ..@@@  ",
"++. @$++. .$+.  @@....@  @@ @@@+. @+....@+.... .",
"++. .++....+..   @+...@..  @...@. @++... @++.. .",
"..+@..... @..@ @  @+.@ +.@ +....@  @+++@@ @@@@ @",
"..@ @..@@ @@@ @@ @ @@ . @  @+.. @@  @@@@    @ @@",
"@@...@@@ @... ...@   ... @@ @@@ @@@  @@  ... @..",
"#...+.@@@...+ +.. @....+@@@ @@ @@  @ @  .++.@+..",
"@..+.@  ...+@ @+. @.+.+.@@  @ @@@ ...  .++.@@.+@",
"$++.@   @++@ @@@@ @@.+.@  @.. ..  +... @..@@ @@@",
"+.@@@ ..@@@+@ @@@  @@@@ @...+.... @++.  @@@  @@ ",
"..@@ ..+@.++.  @ . @@@  @@.+ ..+@ @@@@ @     @  ",
"@@  ..+. +... @  .. @@ . @@ @.+@  @@ @@@ @..   .",
"@@  ++.@ @..@ @@ @. @ ..@   @@@@  @@ @@ @..@@ ..",
"#@@ @@@@ @@@@ @  @@ @ .@@ @@ @@    @  @  @@@  @@",
" @@@ @@@  @@      @   @@@ @@       @            ",
".  @  @@   ..  .       @@     @@@ @  @@  ...  ..",
".  @@ @@  ..+ ..  ..   @ ....@ @@ @  @@@ ..@ +..",
" .. @ @@ ..+. .@ ...+   .+.... @  @      @@  .++",
" +..   @  ..  @@ ..+@   @.+++@ @ @..@ @@ @@  @@@",
" @+.    @  @  @@ @@@  .. @@@@    @+.. @@@ @  @@@",
" @@@  ..@  @  @  @@ @.... @@    @ @+. @@  ... @@",
"  @@  .+@      ..@@ @...+ @@ ...@ @@@    ...+ @ ",
"@ @@ .+@  ..  ...@  @@.+@ @ ...@ @ @@ ..@.++@ @ ",
"@  @ .@@ ..@ @..@   @@@@@   @@@@ .  @ .+@@@@@ @ ",
"   @ @@  @@@ @@@  .. .@@ @.. @@@ .. @ @@ @@@@   ",
"@@ @ @@ @@@  @@   ..@ @@ ... @@  @.       @@  . ",
"@@@  @@  @@ @     @@. @ @@.@ @@  @@@ ..@  @@ ..@",
"@@@    @@  @@@  @@ @@ @ @@@     @ @@ ..@ @@@ .@ ",
"@@     @@@ @@@   @@ @  @@@   @@ @ @@ @@@ @@@   @",
"        @@       @@    @@@  @@@    @  @@ @@@ @@@",
"#                      @@   @@                  ",
"#      @@            @   ..@     ..             ",
"# @    @@ @  ..@  @ @@@ ..@@ @@  @..   @..  @@ .",
"  @@  @@ @@ ..@@ @@ @@@ @@@  @@  @@@  @..@  @@..",
"  @@@ @@ @@ @@@@ @@ @@      @@@ @     @@@     ..",
"   @@ @@ @   @@ @@  @ @@@  @@@ @@@@ @  @  @  @@@",
"    @  @        @ @@  @@@@  @ @@@@@ @@ @  @     ",
"  @ @  @  @@  @   @@@@@@@  @  @@ @  @@   @@  @ @",
"  @@     @@@  @  @ @@@     @@ @  @  @  @@@@  @@ ",
"  @@     @@  @@  @ @@ @@  @@@ @ @@ @@   @@   @@ ",
"  @          @@  @ @@ @@ @@@    @@ @  @  @   @  ",
"% @          @@  @@  @@ @@@  @@ @  @ @@      @  ",
"             @   @@  @@@ @@ @@@                 ",
"%                @@         @@                  ",
"%                                               ",
"&%   &*&=    &     &&               &=      &   ",
"&&&=&*&=*&&*&*&=&*&=*&=   =&-&&=   &**&&=&&&*=&&",
"===&***-&=***&*&--****&=&&**&**&=&&****&*****&**",
"*&&***&**&*****&*&*****&*****&***=*&***&*****&**",
"&**&=&*&&*&***&***&***&*&&**&****&**&&=*&***&*=&",
"***********&=&*****=&&****-&*&**&*&&**&**&&&**&*",
"**********&*&*****&***&**&****&&*******&-***-&**",
"********&&***&*****&&**&=***&&******************",
"*********************&**************************",
"************************************************",
"************************************************",
"********************************************&&**",
"*******************************************&-*&*",
"*******************************************&**=*",
"********************************************&=**",
"************************************************",
"**********************************-*************",
"************************************************"};
