/* XPM */
static char * lava_rock_lm_xpm[] = {
"31 48 6 1",
" 	c #973724",
".	c #2D1836",
"+	c #523040",
"@	c #442745",
"#	c #3A1E3B",
"$	c #633B43",
"            .++@++++++@++++++@+",
"            ..+@++++++@++++++@+",
"             .+@++++++@+++++@@+",
"             .#++++++++@+++@@++",
"              .+++++++++@@@@+++",
"              .+++++++++@++++++",
"              .+++++++++@++++++",
"              .@+$++++++##+++++",
"               .++$$+++##@#++++",
"               .+++@@@@#@@@@+++",
"              .++++++++@@@+++++",
"              .+++++++++@++++++",
"              #+++++++++@++++++",
"               .+++++++++++++++",
"               .+++++++++++++++",
"               .+++++++++++++++",
"              .++++++++++++++++",
"             .+++++++++++++++++",
"             .+@++@@++++$$+++++",
"             .@+++++@++$$++++++",
"             .++++++@++++@+++++",
"             .+++++++@+@@++++++",
"            #++++++++@#@##+++++",
"            .+++++++++@@@#@++++",
"           #++++++++++@@@@#++++",
"           .++++++++++@@@@+++++",
"           .+++++++++++@++$$+++",
"           #+$++++++++++$$$$$++",
"            .$$+++++++++$$+++++",
"            #+$++++++++++++++++",
"             .+++++++++++++++++",
"             .@++++++++++++++++",
"            .@@@+++++++++++++++",
"            .@@+++++++++++#++@@",
"            .@++++++$+@@@#@#@@+",
"           .@++++++$+@+++@@@+@+",
"           .++++++++@+++++@++++",
"           .+++++++++++++++@+++",
"           .+++++++++++++++@+++",
"           .+$+++@+++++++++@+++",
"           .@+$+++@+$+++++@++++",
"            .+$+++@+$$+++++++++",
"            .@+$+@#@+$$++++++++",
"             .@+@@++++++@++++++",
"             .#@@++++++@+++++++",
"             .+##$+++++@++++++$",
"             .++#+$$++++@$+++$+",
"             .@@##++#$$$#@$+#+@"};
