/* XPM */
static char * lava_rock_rm_xpm[] = {
"31 48 6 1",
" 	c #523040",
".	c #442745",
"+	c #3A1E3B",
"@	c #2D1836",
"#	c #973724",
"$	c #633B43",
" .  +     +@@@@@@@@############",
"  ...            +#############",
"   .$             +############",
"   .$$$          $@############",
"   . $$$         $@############",
"    .. $$       $ @############",
"    .... ..   ..@@#############",
"  .  .  ..     ..@#############",
"   ..   .       .@#############",
"    .  . . $   $  +############",
"     ..  .. $$$    +###########",
"          ..       @###########",
"            $    $ @###########",
"            $   $$ @###########",
"           .$$$$$ .@###########",
"           . $$$ .@############",
"            .....@@############",
"            .    .@############",
"           .       @###########",
"   $$  .           @###########",
"  $$  ..         $ @###########",
"    .....  .    $$@############",
"      ..   . $$$$ +############",
"      .    .. $$ +#############",
"      .   .++.   @#############",
"     .    ...+...@#############",
"           ...   @#############",
"           .      +############",
"          .       @############",
"          .       @############",
"                 $@############",
"                $ @############",
"             $$$ .@############",
"           ...  ...@###########",
"      $$ ....     .@###########",
"     $$    .       @###########",
"           .        @##########",
"                    @##########",
"                    @##########",
"          $  $$     @##########",
"    $   $$ .  $$$  $@##########",
"     $$$ ...   . $$ @##########",
"      .....     .  @###########",
"       +.+     $..@@###########",
"        +      $...@###########",
"        .     $ .+@@###########",
" .     .+    $ .++@############",
" .. .+++++    .+..@############"};
