/* XPM */
static char * collect_2_xpm[] = {
"48 48 145 2",
"  	c #523040",
". 	c #442745",
"+ 	c #633B43",
"@ 	c #3A1E3B",
"# 	c #52313F",
"$ 	c #53323D",
"% 	c #54333D",
"& 	c #53323E",
"* 	c #53313F",
"= 	c #52303F",
"- 	c #53323C",
"; 	c #4F323C",
"> 	c #5F3F33",
", 	c #634232",
"' 	c #5F3E35",
") 	c #593938",
"! 	c #55343C",
"~ 	c #623B41",
"{ 	c #462942",
"] 	c #4C303D",
"^ 	c #5A3D36",
"/ 	c #71512F",
"( 	c #81602F",
"_ 	c #89652F",
": 	c #805D2D",
"< 	c #74512C",
"[ 	c #56353A",
"} 	c #52313E",
"| 	c #4F323D",
"1 	c #67462F",
"2 	c #805F2B",
"3 	c #9B7A39",
"4 	c #AC8E4E",
"5 	c #B09151",
"6 	c #A98746",
"7 	c #9A773A",
"8 	c #7D5B2D",
"9 	c #624132",
"0 	c #815E28",
"a 	c #A27E35",
"b 	c #BA9B53",
"c 	c #C5AE6D",
"d 	c #C7AF6E",
"e 	c #C3AB6B",
"f 	c #B89B5A",
"g 	c #9B793B",
"h 	c #72512F",
"i 	c #583838",
"j 	c #533140",
"k 	c #59373B",
"l 	c #6F4C2F",
"m 	c #926D28",
"n 	c #B18C39",
"o 	c #C1A155",
"p 	c #C8AC62",
"q 	c #CAB065",
"r 	c #CAB36B",
"s 	c #C5AE6C",
"t 	c #AF8F49",
"u 	c #85642D",
"v 	c #624232",
"w 	c #54333C",
"x 	c #54323F",
"y 	c #64403A",
"z 	c #845D2C",
"A 	c #9E782B",
"B 	c #AD8732",
"C 	c #B28D3A",
"D 	c #B89542",
"E 	c #BE9C47",
"F 	c #C3A456",
"G 	c #C4A65A",
"H 	c #B69345",
"I 	c #93702C",
"J 	c #6B4A2E",
"K 	c #55333F",
"L 	c #694539",
"M 	c #8D6730",
"N 	c #A98535",
"O 	c #AB8734",
"P 	c #9E782A",
"Q 	c #A17827",
"R 	c #A77F2C",
"S 	c #AE8735",
"T 	c #B38E3C",
"U 	c #B08935",
"V 	c #916C28",
"W 	c #6B492F",
"X 	c #56353B",
"Y 	c #5E3B3D",
"Z 	c #845F34",
"` 	c #A78236",
" .	c #AC8B39",
"..	c #9D7A2E",
"+.	c #946C23",
"@.	c #956C22",
"#.	c #9B7428",
"$.	c #A88331",
"%.	c #A7802E",
"&.	c #8E6728",
"*.	c #684632",
"=.	c #56343D",
"-.	c #56343F",
";.	c #6E4A3A",
">.	c #967135",
",.	c #B08D3B",
"'.	c #AC8937",
").	c #A37F32",
"!.	c #9F7C30",
"~.	c #A58335",
"{.	c #AD8B38",
"].	c #8C652D",
"^.	c #694638",
"/.	c #56343E",
"(.	c #452745",
"_.	c #503243",
":.	c #7E5A36",
"<.	c #9F7932",
"[.	c #AD8736",
"}.	c #B18B37",
"|.	c #AE8A37",
"1.	c #B08E3B",
"2.	c #A78337",
"3.	c #947034",
"4.	c #7A5435",
"5.	c #5F3C3C",
"6.	c #5D3D40",
"7.	c #815B34",
"8.	c #936C32",
"9.	c #9F7632",
"0.	c #A27B33",
"a.	c #997434",
"b.	c #856135",
"c.	c #6D4A3A",
"d.	c #5B383E",
"e.	c #543240",
"f.	c #482B44",
"g.	c #603D3C",
"h.	c #6B473A",
"i.	c #765137",
"j.	c #7A5536",
"k.	c #6A493D",
"l.	c #5F3D3D",
"m.	c #58353F",
"n.	c #4E3043",
"    . .                                                                                 .       ",
"              . .                                 .       . .                         .         ",
"          + +     .                                 . . .                             .         ",
"        + + +     . .                               . .                               .         ",
"        + +       @ . . .                           .                                   .       ",
"      .         @ . .     .                                                             . .     ",
"    . @ @ . . .   .       .                                                                 .   ",
"  . @ @ . .         . . .                   # $ % & * =   + +                                   ",
"    . . .   . . .                   .   = - ; > , ' ) ! ~ +                 .                   ",
"            + +   .                   { ] ^ / ( _ : < , [ =         .     . .                   ",
"          + + +     .   . .         } | 1 2 3 4 5 6 7 8 > -           . . .                     ",
"        + + +       . .             % 9 0 a b c d e f g h i #             .           + +       ",
"        + +       . .             j k l m n o p q r s t u v w             .         + + +       ",
"      .         . .               x y z A B C D E F G H I J [ =                     + +         ",
"        . . . .                   K L M N O P Q R S T U V W X                                   ",
"    .   . .                       j Y Z `  ...+.@.#.$.%.&.*.=.                                  ",
"      .     .                       -.;.>.,.'.).!.~.{.N ].^./.                                  ",
"        .     .                     (._.:.<.[.}.|.1.2.3.4.5.j                                   ",
"        . . .                         K 6.7.8.9.0.a.b.c.d.e.                                    ",
"        .                               f.g.h.i.j.k.l.-.                                        ",
"      .                                   j K m.n.-.j                                           ",
"    .                                                                                           ",
"                                                                                                ",
"                                                                                                ",
"                                                                                                ",
"                                                    + +                                         ",
"                  +         +                   + + + + +                                       ",
"                .   + + + +                     + +                                             ",
"                .                                                                               ",
"            . . . . .                                                                           ",
"          . . .       .                                                                         ",
"                                                                                                ",
"                    .                                   .                                       ",
"                  .                                   .                                 .       ",
"                  .                                   .                 @ @         . .         ",
"                  .                                   .               @ @ . @ . . . .           ",
"            . . .                                       .           @ @ . . @                   ",
"          . .     .                                     . .       . @ . . @                     ",
"          .     . . .         .                             .   .     @ @                       ",
"            . . . . . . . . .                                   .     .                   .     ",
"                . .                         .                     .   .                 +       ",
"                .                   .     . .                       . .           + + +   .     ",
"                .                     . . .                             .   + + +       .       ",
"              .                           .           + +                 .       . . .         ",
"      .                                   .         + + +                   . . .               ",
"    . .                                             + +                                         ",
". .                                                                                             ",
"                                                                                        + + +   "};
