/* XPM */
static char * wall_top_xpm[] = {
"48 48 692 2",
"  	c #2E1D11",
". 	c #3C2513",
"+ 	c #472F18",
"@ 	c #785D32",
"# 	c #907848",
"$ 	c #A69566",
"% 	c #A99869",
"& 	c #AA9969",
"* 	c #AA9A6A",
"= 	c #AC9D6D",
"- 	c #A69769",
"; 	c #4D3F29",
"> 	c #795F36",
", 	c #A59465",
"' 	c #AA996A",
") 	c #A79767",
"! 	c #937C4D",
"~ 	c #694E2C",
"{ 	c #5C3F22",
"] 	c #362314",
"^ 	c #49321C",
"/ 	c #654B2C",
"( 	c #A29164",
"_ 	c #A79768",
": 	c #A89869",
"< 	c #A59566",
"[ 	c #8F794B",
"} 	c #41301C",
"| 	c #312013",
"1 	c #442E18",
"2 	c #5C4628",
"3 	c #8E7645",
"4 	c #957C4B",
"5 	c #A89767",
"6 	c #A59466",
"7 	c #7F653C",
"8 	c #71562E",
"9 	c #452E18",
"0 	c #2F1E12",
"a 	c #4B331D",
"b 	c #644828",
"c 	c #8E7544",
"d 	c #937A48",
"e 	c #957D4B",
"f 	c #977F4E",
"g 	c #AC9C6C",
"h 	c #A79769",
"i 	c #50432B",
"j 	c #8B7344",
"k 	c #957D4C",
"l 	c #A69565",
"m 	c #927C4D",
"n 	c #644829",
"o 	c #3A2615",
"p 	c #5D4123",
"q 	c #795D33",
"r 	c #937B4A",
"s 	c #967E4C",
"t 	c #967E4D",
"u 	c #998352",
"v 	c #503F28",
"w 	c #2F1E11",
"x 	c #412A16",
"y 	c #73572F",
"z 	c #907746",
"A 	c #967F4E",
"B 	c #988150",
"C 	c #A49465",
"D 	c #7F663C",
"E 	c #503920",
"F 	c #301F13",
"G 	c #312113",
"H 	c #775B31",
"I 	c #917746",
"J 	c #917B4C",
"K 	c #4B3A22",
"L 	c #8D7545",
"M 	c #A69667",
"N 	c #694F30",
"O 	c #422B16",
"P 	c #644727",
"Q 	c #8D7444",
"R 	c #AA9A6B",
"S 	c #685031",
"T 	c #362414",
"U 	c #4E371F",
"V 	c #917846",
"W 	c #775E36",
"X 	c #382616",
"Y 	c #322113",
"Z 	c #624525",
"` 	c #7B6034",
" .	c #7D633A",
"..	c #46341D",
"+.	c #97804F",
"@.	c #695031",
"#.	c #462E18",
"$.	c #775C32",
"%.	c #AB9B6C",
"&.	c #796038",
"*.	c #402D18",
"=.	c #72572F",
"-.	c #A99969",
";.	c #7B6239",
">.	c #392716",
",.	c #372616",
"'.	c #785D33",
").	c #907645",
"!.	c #7B6138",
"~.	c #45341D",
"{.	c #695030",
"].	c #4A331B",
"^.	c #8C7343",
"/.	c #412E19",
"(.	c #765A30",
"_.	c #7C6339",
":.	c #3C2C19",
"<.	c #8C7444",
"[.	c #7D643A",
"}.	c #AE9F6F",
"|.	c #684F30",
"1.	c #4A341C",
"2.	c #8E7545",
"3.	c #90794B",
"4.	c #3F2F1B",
"5.	c #3D2D19",
"6.	c #4B3B22",
"7.	c #A69668",
"8.	c #453825",
"9.	c #8B7243",
"0.	c #AB9A6B",
"a.	c #AD9E6E",
"b.	c #A39365",
"c.	c #4F4129",
"d.	c #A99A6B",
"e.	c #4B341C",
"f.	c #795F37",
"g.	c #402E19",
"h.	c #765A31",
"i.	c #A7986A",
"j.	c #453926",
"k.	c #372515",
"l.	c #755A31",
"m.	c #7C633B",
"n.	c #45341E",
"o.	c #8A7243",
"p.	c #674E2F",
"q.	c #5F4E33",
"r.	c #5D4124",
"s.	c #3D2A17",
"t.	c #937D4E",
"u.	c #3F301C",
"v.	c #604526",
"w.	c #957E4C",
"x.	c #927B4B",
"y.	c #644928",
"z.	c #392616",
"A.	c #624828",
"B.	c #927A4A",
"C.	c #614627",
"D.	c #49331C",
"E.	c #A69768",
"F.	c #473A26",
"G.	c #3C2614",
"H.	c #382615",
"I.	c #72562E",
"J.	c #7D6135",
"K.	c #382716",
"L.	c #432D17",
"M.	c #A49364",
"N.	c #5D4023",
"O.	c #332113",
"P.	c #382515",
"Q.	c #46351F",
"R.	c #8A7446",
"S.	c #8D7547",
"T.	c #45321D",
"U.	c #352314",
"V.	c #624627",
"W.	c #8A7142",
"X.	c #6A4E2C",
"Y.	c #8F7646",
"Z.	c #917A4A",
"`.	c #A19265",
" +	c #443724",
".+	c #322013",
"++	c #513A20",
"@+	c #917847",
"#+	c #91794A",
"$+	c #574025",
"%+	c #432C18",
"&+	c #6D5432",
"*+	c #81683D",
"=+	c #947D4C",
"-+	c #957D4D",
";+	c #856D4A",
">+	c #6C533C",
",+	c #412B19",
"'+	c #342113",
")+	c #573B20",
"!+	c #3B291A",
"~+	c #514534",
"{+	c #493B27",
"]+	c #6E5737",
"^+	c #705837",
"/+	c #654929",
"(+	c #5A3E22",
"_+	c #392717",
":+	c #4C3C29",
"<+	c #51412B",
"[+	c #57452D",
"}+	c #654A2E",
"|+	c #65482C",
"1+	c #674B2E",
"2+	c #654A2C",
"3+	c #664A2C",
"4+	c #63492B",
"5+	c #463521",
"6+	c #433420",
"7+	c #483B27",
"8+	c #382719",
"9+	c #553A21",
"0+	c #372415",
"a+	c #4A321B",
"b+	c #664F2F",
"c+	c #957F4F",
"d+	c #947C4A",
"e+	c #795E33",
"f+	c #322114",
"g+	c #614A2F",
"h+	c #A29163",
"i+	c #A79666",
"j+	c #A8976A",
"k+	c #B0A18C",
"l+	c #9D9083",
"m+	c #47392D",
"n+	c #51361E",
"o+	c #604B35",
"p+	c #A99E83",
"q+	c #5E513B",
"r+	c #9F8F61",
"s+	c #A08F61",
"t+	c #664E2E",
"u+	c #5D4325",
"v+	c #634B2F",
"w+	c #998667",
"x+	c #9C8868",
"y+	c #9A8665",
"z+	c #978261",
"A+	c #887257",
"B+	c #76624F",
"C+	c #594C44",
"D+	c #574A41",
"E+	c #605243",
"F+	c #60523F",
"G+	c #5B4D3B",
"H+	c #5B4C39",
"I+	c #5A4B37",
"J+	c #574733",
"K+	c #493727",
"L+	c #402F21",
"M+	c #856E43",
"N+	c #A39262",
"O+	c #907745",
"P+	c #7C6237",
"Q+	c #4F381E",
"R+	c #301F12",
"S+	c #39291B",
"T+	c #7C684A",
"U+	c #9E8B5C",
"V+	c #947C4B",
"W+	c #927A4D",
"X+	c #7E653F",
"Y+	c #664D2A",
"Z+	c #3B2816",
"`+	c #3E2917",
" @	c #5B4D34",
".@	c #A29267",
"+@	c #947C4C",
"@@	c #947B4B",
"#@	c #907849",
"$@	c #856D42",
"%@	c #533D26",
"&@	c #684F31",
"*@	c #8D774B",
"=@	c #8E7648",
"-@	c #8D7646",
";@	c #8D7546",
">@	c #887042",
",@	c #6A522F",
"'@	c #47331E",
")@	c #6F5733",
"!@	c #998456",
"~@	c #927947",
"{@	c #8B7242",
"]@	c #664C2A",
"^@	c #332214",
"/@	c #403222",
"(@	c #96825E",
"_@	c #A79567",
":@	c #977E4E",
"<@	c #896F40",
"[@	c #44301A",
"}@	c #563D23",
"|@	c #69593B",
"1@	c #A59668",
"2@	c #A59364",
"3@	c #927948",
"4@	c #543E22",
"5@	c #6F5938",
"6@	c #A19062",
"7@	c #9B8554",
"8@	c #937B49",
"9@	c #856D40",
"0@	c #57452A",
"a@	c #89744B",
"b@	c #7A6137",
"c@	c #382717",
"d@	c #453929",
"e@	c #A79871",
"f@	c #A9996A",
"g@	c #8F7544",
"h@	c #745930",
"i@	c #4C371E",
"j@	c #765E39",
"k@	c #9B8B60",
"l@	c #AB9C6D",
"m@	c #897142",
"n@	c #543E23",
"o@	c #705939",
"p@	c #967F4D",
"q@	c #887142",
"r@	c #605133",
"s@	c #9D8C5F",
"t@	c #AB9C6C",
"u@	c #A59363",
"v@	c #876F41",
"w@	c #3B2B18",
"x@	c #483C2C",
"y@	c #ADA079",
"z@	c #977F4F",
"A@	c #8F7545",
"B@	c #745A31",
"C@	c #4E391F",
"D@	c #7D663E",
"E@	c #927A48",
"F@	c #897143",
"G@	c #553F23",
"H@	c #5A482B",
"I@	c #8E784B",
"J@	c #A79565",
"K@	c #988151",
"L@	c #3B2B19",
"M@	c #443828",
"N@	c #A3936F",
"O@	c #8F7645",
"P@	c #AB9B6B",
"Q@	c #9C8656",
"R@	c #8A7143",
"S@	c #6E5738",
"T@	c #554225",
"U@	c #7E673E",
"V@	c #82693C",
"W@	c #392917",
"X@	c #413225",
"Y@	c #948264",
"Z@	c #A69567",
"`@	c #97804E",
" #	c #755B31",
".#	c #7C653D",
"+#	c #A79868",
"@#	c #97814F",
"##	c #876E41",
"$#	c #6E5736",
"%#	c #A59567",
"&#	c #998251",
"*#	c #947B49",
"=#	c #544225",
"-#	c #7C643C",
";#	c #A49264",
">#	c #886E3F",
",#	c #6E542E",
"'#	c #352315",
")#	c #3F3124",
"!#	c #8F7D62",
"~#	c #988251",
"{#	c #735930",
"]#	c #4C381F",
"^#	c #7A623C",
"/#	c #775C33",
"(#	c #4F371D",
"_#	c #6C5535",
":#	c #998452",
"<#	c #564327",
"[#	c #816A40",
"}#	c #7A5F34",
"|#	c #604425",
"1#	c #403125",
"2#	c #8F7D65",
"3#	c #A49567",
"4#	c #A39161",
"5#	c #7F6439",
"6#	c #5C4425",
"7#	c #412E1A",
"8#	c #6D5736",
"9#	c #A89868",
"0#	c #8B7142",
"a#	c #684D2B",
"b#	c #49311A",
"c#	c #6A5332",
"d#	c #9E8C5E",
"e#	c #9A8454",
"f#	c #8A7344",
"g#	c #5C4B2D",
"h#	c #927E52",
"i#	c #988050",
"j#	c #947A49",
"k#	c #947A48",
"l#	c #745831",
"m#	c #583E22",
"n#	c #3C2E25",
"o#	c #7F7161",
"p#	c #8E7B52",
"q#	c #937A49",
"r#	c #765B32",
"s#	c #4A341B",
"t#	c #362415",
"u#	c #5A482E",
"v#	c #9F8E61",
"w#	c #9E8959",
"x#	c #937C4C",
"y#	c #7B6037",
"z#	c #5F4324",
"A#	c #422C18",
"B#	c #634829",
"C#	c #8C7549",
"D#	c #A18E5F",
"E#	c #998252",
"F#	c #978150",
"G#	c #A09164",
"H#	c #AA9B6B",
"I#	c #9F8A5A",
"J#	c #9B8656",
"K#	c #9A8555",
"L#	c #876D3F",
"M#	c #604727",
"N#	c #47301A",
"O#	c #382C25",
"P#	c #71665F",
"Q#	c #765C38",
"R#	c #8D774C",
"S#	c #9F8C5E",
"T#	c #A28F5F",
"U#	c #68512E",
"V#	c #48311A",
"W#	c #493923",
"X#	c #8E7A4E",
"Y#	c #A18F61",
"Z#	c #A89667",
"`#	c #A79667",
" $	c #A39265",
".$	c #9C8B60",
"+$	c #6F593A",
"@$	c #503B28",
"#$	c #402F23",
"$$	c #59412B",
"%$	c #6C5336",
"&$	c #8E784E",
"*$	c #A18F62",
"=$	c #A79668",
"-$	c #9F8D62",
";$	c #7D6643",
">$	c #5D4F39",
",$	c #998A61",
"'$	c #A79669",
")$	c #A79568",
"!$	c #A18F65",
"~$	c #9A8860",
"{$	c #897145",
"]$	c #755A32",
"^$	c #533C21",
"/$	c #442E19",
"($	c #2E1E12",
"_$	c #372A23",
":$	c #74675B",
"<$	c #745A33",
"[$	c #8D764B",
"}$	c #9D8961",
"|$	c #9E8B61",
"1$	c #9A8358",
"2$	c #967F55",
"3$	c #89724D",
"4$	c #735C40",
"5$	c #554437",
"6$	c #514237",
"7$	c #745E45",
"8$	c #847052",
"9$	c #8F7B57",
"0$	c #9B865F",
"a$	c #9C8860",
"b$	c #9C8862",
"c$	c #9B8862",
"d$	c #9C8863",
"e$	c #9B8763",
"f$	c #8E7C5E",
"g$	c #85735D",
"h$	c #81705D",
"i$	c #6F6358",
"j$	c #696159",
"k$	c #69625C",
"l$	c #706760",
"m$	c #786D64",
"n$	c #8B7B6C",
"o$	c #9B8B74",
"p$	c #A7977B",
"q$	c #A8997F",
"r$	c #9E8F7C",
"s$	c #8F8379",
"t$	c #87807A",
"u$	c #9F9383",
"v$	c #B1A28D",
"w$	c #B4A690",
"x$	c #B5A893",
"y$	c #AEA292",
"z$	c #A59A8D",
"A$	c #927B50",
"B$	c #846E44",
"C$	c #382818",
"D$	c #2D1D13",
"E$	c #3F2B1C",
"F$	c #49321B",
"G$	c #71552E",
"H$	c #876E43",
"I$	c #9A895D",
"J$	c #A18E61",
"K$	c #A69465",
"L$	c #A69464",
"M$	c #A59464",
"N$	c #98875C",
"O$	c #463520",
"P$	c #765E37",
"Q$	c #A08F62",
"R$	c #A29162",
"S$	c #8C7547",
"T$	c #684E2E",
"U$	c #5F462A",
"V$	c #453422",
"W$	c #553F28",
"X$	c #6F5738",
"Y$	c #A29165",
"Z$	c #A49467",
"`$	c #A59468",
" %	c #A59569",
".%	c #A59568",
"+%	c #A69569",
"@%	c #A59669",
"#%	c #A6966A",
"$%	c #A8986B",
"%%	c #937E55",
"&%	c #4A3D32",
"*%	c #41352F",
"=%	c #524134",
"-%	c #6E5A40",
";%	c #9A8459",
">%	c #A6966C",
",%	c #A18F60",
"'%	c #8F784C",
")%	c #785C32",
"!%	c #776C63",
"~%	c #2C1C11",
"{%	c #452E19",
"]%	c #5C4224",
"^%	c #8A7041",
"/%	c #9C8757",
"(%	c #A59769",
"_%	c #4E3F27",
":%	c #9A8453",
"<%	c #8C7446",
"[%	c #5F4325",
"}%	c #392615",
"|%	c #604324",
"1%	c #7B5F35",
"2%	c #947B4A",
"3%	c #4E3A23",
"4%	c #473019",
"5%	c #795D32",
"6%	c #927847",
"7%	c #937947",
"8%	c #8D794E",
"9%	c #827467",
"0%	c #593E22",
"a%	c #745730",
"b%	c #947F51",
"c%	c #4C3C23",
"d%	c #8F7746",
"e%	c #644A2B",
"f%	c #422A16",
"g%	c #664A29",
"h%	c #A8996A",
"i%	c #684F2E",
"j%	c #5B4325",
"k%	c #806539",
"l%	c #A99A6A",
"m%	c #938069",
"n%	c #7E653A",
"o%	c #48361F",
"p%	c #654C2D",
"q%	c #785E36",
"r%	c #775C31",
"s%	c #907D65",
"t%	c #6E522C",
"u%	c #46351E",
"v%	c #674D2E",
"w%	c #4B351C",
"x%	c #8C7344",
"y%	c #796037",
"z%	c #978367",
"A%	c #866C3E",
"B%	c #7A6138",
"C%	c #A99868",
"D%	c #684E30",
"E%	c #AA9A75",
"F%	c #4A3921",
"G%	c #AA9B6C",
"H%	c #7C6239",
"I%	c #755A30",
"J%	c #B6A981",
"K%	c #50422A",
"L%	c #6A5132",
"M%	c #49331B",
"N%	c #9E8F63",
"O%	c #765C35",
"P%	c #755930",
"Q%	c #AD9E76",
"R%	c #7E6438",
"S%	c #8A744A",
"T%	c #483821",
"U%	c #6B5333",
"V%	c #49321A",
"W%	c #AA9A6C",
"X%	c #56462D",
"Y%	c #55391F",
"Z%	c #74582F",
"`%	c #8B7141",
" &	c #98835F",
".&	c #674B29",
"+&	c #6C512E",
"@&	c #3C2817",
"#&	c #6A502D",
"$&	c #917947",
"%&	c #664B2A",
"&&	c #4F422C",
"*&	c #362111",
"=&	c #332213",
"-&	c #694E2A",
";&	c #785C31",
">&	c #A08D5D",
",&	c #7A6549",
"'&	c #4B331B",
")&	c #7D6337",
"!&	c #866D41",
"~&	c #64482A",
"{&	c #3C2C21",
"]&	c #413226",
"^&	c #564735",
"/&	c #574A38",
"(&	c #584B3A",
"_&	c #584B3D",
":&	c #5A4F41",
"<&	c #5B5045",
"[&	c #544A44",
"}&	c #554C48",
"|&	c #776353",
"1&	c #8A755B",
"2&	c #9D8968",
"3&	c #A18D6C",
"4&	c #A38F6F",
"5&	c #A49172",
"6&	c #BDB297",
"7&	c #A99D92",
"8&	c #B9AC9A",
"9&	c #3B2412",
"0&	c #76592F",
"a&	c #5B4428",
"b&	c #472E18",
"c&	c #604224",
"d&	c #2B1B10",
"e&	c #2B1B11",
"f&	c #3A2B19",
"g&	c #392918",
"h&	c #785B30",
"i&	c #49321D",
"  . + @ # $ % & * = - ; > , ' ' ) ! ~ { ] ^ / ( _ : ' * * * * ' : < [ } | 1 2 3 4 5 & 6 7 8 9   ",
"0 a b c d 4 e e f g h i j e k k f l m n o p q r s s s s t t t t t u < v w x y z d t A B C D E F ",
"G p H I d d d d k * J K L d d d d f M N O P Q d d d d d d d d d e & R S T U @ V d d d e * M W X ",
"Y Z ` V d d d d k %  ...L d d d d +.: @.#.$.V d d d d d d d d d k g %.&.*.=.c d d d d d B -.;.>.",
",.'.).d d d d d k : !.~.L d d d +.* R {.].^.d d d d d d d d d d k g %.!./.(.V d d d d d k : _.>.",
":.<.d d d d d d k % [...L d d k * }.R |.1.2.d d d d d d d d d d +.g %.!./.(.V d d d d d k * 3.4.",
"5.L d d d d d d B * m 6.L d d k g }.R |.1.2.d d d d d d d d d e ' }.%.!./.(.V d d d d d k g 7.8.",
":.9.d d d d d k 0.a.b.c.L d d k & g d.|.e.2.d d d d d d d d d k g }.- f.g.h.V d d d d d k g i.j.",
"k.l.V d d d d k g : m.n.o.d d d e +.< p.e.2.d d d d d d d d d k * d.q.r.s.(.).d d d d d k * t.u.",
"Y v.Q d d d d w.* x.y.z.A.o.d s t t B.C.D.9.V d z z d d d d d d B E.F.G.H.I.J.V d d d d k ) ;.K.",
"  L.h.c d d d e M.!.N.O.P.Q.R.b._ 6 S.T.U.V.$.W.X.X.Q z z z z Y.Z.`. +.+| ++H @+d d d d d #+$+| ",
"  %+&+*+=+t t -+;+>+,+'+)+!+~+{+]+^+/+(+_+:+<+[+}+|+1+2+2+3+4+5+6+7+8+9+0+a+b+c+d+d d d z e+1   ",
"f+g+h+$ i+i+i+j+k+l+m+Y n+o+p+q+r+s+t+u+v+w+x+y+z+A+B+C+D+E+F+G+H+I+J+K+L+4+M+N+t d d d O+P+Q+R+",
"S+T+U+A 4 4 4 V+W+X+Y+Z+`+ @.@c+e 4 z Y.z +@+@+@@@#@$@%@&@*@=@S.-@;@>@,@'@)@!@i+A d d d ~@{@]@^@",
"/@(@_@:@d d d d @+<@=.[@}@|@1@2@w.d d d d d d d d 3@>@4@5@6@7@B 8@d ~@9@0@a@: -.f d d d d Y.b@c@",
"d@e@f@f d d d d d g@h@i@j@k@l@-.f d d d d d d d d 3@m@n@o@- %.5 p@d 3@q@r@s@t@u@w.d d d d 3@v@w@",
"x@y@0.z@d d d d d A@B@C@D@: a.5 p@d d d d d d d d E@F@G@5@- a.& f d E@F@H@I@J@K@8@d d d d E@>@L@",
"M@N@% f d d d d d O@l.C@D@: P@Q@d+d d d d d d d d d R@G@S@7.a.J@p@d d R@T@U@M.A d d d d d @+V@W@",
"X@Y@Z@`@d d d d d O@ #C@.#+#* @#d d d d d d d d d ~@##4@$#%#i+&#*#d d o.=#-#;#`@d d d d @+>#,#'#",
")#!#< ~#8@d d d d Q {#]#^#_ * +.d d d d d d d d d O@/#(#_#h+:#*#d d d o.<#[#M.+.d d d d O@}#|#Y ",
"1#2#3#4#t d d d I 5#6#7#8#%#9#+.d d d d d d d d d 0#a#b#c#d#e#d+8@8@d f#g#h#i+i#j#k#k#d 2.l#m#| ",
"n#o#p#;#~#k e q#).r#s#t#u#v#w#+.t t p@p@f f f A x#y#z#A#B#C#D#7@E#u F#>@r@G#H#I#Q@J#K#r L#M#N#0 ",
"O#P#Q#R#S#N+T#t 2.U#V#'#W#X#Y#M.$ $ i+i+Z#`#6  $.$+$@$#$$$%$&$*$=$=$-$;$>$,$j+'$)$!$~${$]$^$/$($",
"_$:$S <$[$}$|$1$2$3$4$5$6$7$8$9$0$a$b$c$d$e$f$g$h$i$j$k$l$m$n$o$p$q$r$s$t$u$v$w$x$y$z$A$Q o.B$C$",
"D$E$F$G$H$I$J$K$L$M$N$O$P$Q$$ i+R$S$T$U$V$W$X$Y$Z$`$ %.%+%@%#%$%$%'$%%&%*%=%-%2$;%>%>%,%'%)%!%($",
"~%{%]%^%d+/%/%Q@w#a.(%_%<.~#&#B :%K$<%[%}%|%1%V+k e e 4 d+d+2%*#d+Q@%#3%R+4%5%6%d d 7%p@R 8%9%~%",
"~%0%a%@+d 7%7%7%t * b%c%d%d d d 8@u M.e%f%g%A@d d d d d d d d d t = h%i%H.j%k%~@d d d e u@l%m%~%",
"~%|%5%@+d d d d t : n%o%Y.d d d d `@_ p%+ )%@+d d d d d d d d d t = R q%/.r%@+d d d d d w.9#s%~%",
"~%t%<@~@d d d d s : > u%3 d d d t -.f@v%w%x%d d d d d d d d d d w.g H#y%/.H V d d d d d s -.z%~%",
"~%A%d d d d d d k : B%..2.d d e C%}.d.D%e.2.d d d d d d d d d 8@:%= %.B%/.h.V d d d d d k P@E%~%",
"~%L d d d d d d k & S.F%L d d k g }.G%@.1.L d d d d d d d d d e P@}.t@H%/.I%I d d d d d k g J%~%",
"~%L d d d d d d+L$a.C K%<.d d e P@a.G%L%M%Q d d d d d d d d d e t@a.N%O%*.P%I d d d d d e P@Q%~%",
"~%R%@+d d d d e t@= S%T%j d d d +.&#_ U%V%<.d d d d d d d d d d+i+W%X%Y%Z+Z%`%~@d d d d 4 '  &~%",
"~%.&O@d d d d V+* J#+&@&#&2.~@$&@+@+x.%&N#m@@+d d d d d d d d d e _ &&*&=&-&;&O+d d d d 2%>&,&~%",
"~%'&)&V d d d d+-.!&~&{&]&^&/&(&_&:&<&[&}&|&1&2&3&4&5&Y%Y%Y%P@P@~%6&Y%Y%~%~%7&8&P@P@P@P@P@P@Y%~%",
"~%9&0&~@d d d 8@u a&b&0 c&~%d&e&e&c&c&c&c&c&c&c&:.f&g&~%c&c&c&c&~%~%~%c&~%9&c&h&d d d d h&c&9&~%",
"~%i&d d d d d d d h&i&~%~%~%}.d d d d d d d c&c&d h&c&~%~%d }.}.}.d ~%~%~%c&h&}.d d d d d h&9&~%",
"~%h&}.d d d d d d h&h&~%9&~%}.d d d d d d d d d d d d 9&c&d d d d d d c&~%c&d }.d d d d d d c&~%",
"~%d }.d d d d d d d h&~%c&9&}.}.d d d d d d d d d d d 9&c&}.d d d d d d ~%h&}.}.d d d d d d h&~%",
"~%}.}.d d d d d d d h&~%h&}.}.}.d d d d d d d d d d d 9&c&}.}.}.d d d d ~%}.}.}.d d d d d d d ~%",
"~%}.}.d d d d d d d h&~%h&}.}.}.d d d d d d d d d d d 9&c&}.}.}.d d d d ~%d }.d d d d d d d d ~%",
"~%d }.d d d d d d d h&~%h&}.}.d d d d d d d d d d d d 9&c&}.}.}.d d d d ~%h&}.d d d d d d d d ~%",
"~%h&}.d d d d d d d h&~%h&}.}.d d d d d d d d d d d d 9&c&}.}.d d d d d ~%h&}.d d d d d d d h&~%",
"~%h&}.d d d d d d d h&~%h&}.}.d d d d d d d d d d d h&9&c&}.d d d d d d ~%h&}.d d d d d d h&c&~%",
"~%h&}.}.d d d d d h&i&~%c&}.}.d d d d d d d d d d d c&9&c&}.d d d d d d ~%d }.d d d d d d h&c&~%",
"~%i&h&}.d d d d d h&9&~%9&}.d d d d d d d d d d d h&c&~%c&d }.d d d d d ~%}.}.d d d d d d c&i&~%",
"~%9&h&h&}.}.}.d d i&9&~%~%d }.}.}.}.}.}.}.}.}.}.}.c&i&~%c&c&d }.}.}.}.h&~%}.}.}.}.}.}.d h&9&9&~%",
"~%i&i&c&h&d d d d d h&i&~%c&c&h&d d d d d d h&c&c&9&~%~%~%9&c&h&d d h&c&~%h&d d d h&c&c&c&i&9&~%"};
