/* XPM */
static char * wall_xpm[] = {
"48 48 272 2",
"  	c #2C1C11",
". 	c #937A48",
"+ 	c #A9A09B",
"@ 	c #B1A59A",
"# 	c #BAAD9B",
"$ 	c #B8AB98",
"% 	c #B5A794",
"& 	c #A3978B",
"* 	c #8B8684",
"= 	c #968B82",
"- 	c #A29383",
"; 	c #AD9E85",
"> 	c #AA9A81",
", 	c #998977",
"' 	c #887A70",
") 	c #746C68",
"! 	c #6C6664",
"~ 	c #66615F",
"{ 	c #655F5C",
"] 	c #6B6059",
"^ 	c #7F6D5D",
"/ 	c #816F5B",
"( 	c #8F7B5E",
"_ 	c #9F8A64",
": 	c #9F8A62",
"< 	c #9E8A62",
"[ 	c #9E8960",
"} 	c #9D875D",
"| 	c #9A855B",
"1 	c #88724E",
"2 	c #7A6547",
"3 	c #6B5236",
"4 	c #3A2B20",
"5 	c #4C3722",
"6 	c #6F542E",
"7 	c #856D40",
"8 	c #927948",
"9 	c #947C4A",
"0 	c #9C8756",
"a 	c #9B8656",
"b 	c #8A744A",
"c 	c #694C29",
"d 	c #5B4224",
"e 	c #746A65",
"f 	c #3B2412",
"g 	c #48311A",
"h 	c #71552E",
"i 	c #876E43",
"j 	c #9A895E",
"k 	c #A18F62",
"l 	c #A79566",
"m 	c #A79666",
"n 	c #9A8A5E",
"o 	c #463520",
"p 	c #796038",
"q 	c #A39264",
"r 	c #A99868",
"s 	c #A39263",
"t 	c #8B7345",
"u 	c #624627",
"v 	c #573C21",
"w 	c #342214",
"x 	c #4B331D",
"y 	c #6B5333",
"z 	c #A49466",
"A 	c #A79768",
"B 	c #A99869",
"C 	c #AA996A",
"D 	c #AA9969",
"E 	c #A99969",
"F 	c #A89868",
"G 	c #A69565",
"H 	c #917C4E",
"I 	c #3A2A19",
"J 	c #2F1D11",
"K 	c #3F2815",
"L 	c #614A29",
"M 	c #917847",
"N 	c #967E4C",
"O 	c #A59464",
"P 	c #A39162",
"Q 	c #8E784C",
"R 	c #74572E",
"S 	c #746B66",
"T 	c #452E19",
"U 	c #5C4224",
"V 	c #8A7041",
"W 	c #9C8757",
"X 	c #9C8656",
"Y 	c #9E8959",
"Z 	c #AD9E6E",
"` 	c #A59769",
" .	c #4E3F27",
"..	c #8C7444",
"+.	c #988251",
"@.	c #998251",
"#.	c #988150",
"$.	c #9A8453",
"%.	c #A69465",
"&.	c #8C7446",
"*.	c #5F4325",
"=.	c #392615",
"-.	c #604324",
";.	c #7B5F35",
">.	c #947C4B",
",.	c #957D4C",
"'.	c #957D4B",
").	c #957C4B",
"!.	c #947B4A",
"~.	c #947B49",
"{.	c #A59567",
"].	c #4E3A23",
"^.	c #301F12",
"/.	c #473019",
"(.	c #795D32",
"_.	c #927847",
":.	c #937947",
"<.	c #967F4D",
"[.	c #AA9A6B",
"}.	c #8D794E",
"|.	c #827467",
"1.	c #593E22",
"2.	c #745730",
"3.	c #967E4D",
"4.	c #AA9A6A",
"5.	c #947F51",
"6.	c #4C3C23",
"7.	c #8F7746",
"8.	c #937B49",
"9.	c #998352",
"0.	c #A49364",
"a.	c #644A2B",
"b.	c #422A16",
"c.	c #664A29",
"d.	c #8F7545",
"e.	c #AC9D6D",
"f.	c #A8996A",
"g.	c #684F2E",
"h.	c #382615",
"i.	c #5B4325",
"j.	c #806539",
"k.	c #927947",
"l.	c #A59363",
"m.	c #A99A6A",
"n.	c #938069",
"o.	c #A89869",
"p.	c #7E653A",
"q.	c #48361F",
"r.	c #8F7646",
"s.	c #97804E",
"t.	c #654C2D",
"u.	c #472F18",
"v.	c #785C32",
"w.	c #785E36",
"x.	c #412E19",
"y.	c #775C31",
"z.	c #957E4C",
"A.	c #907D65",
"B.	c #6E522C",
"C.	c #896F40",
"D.	c #795F36",
"E.	c #46351E",
"F.	c #8E7645",
"G.	c #A9996A",
"H.	c #674D2E",
"I.	c #4B351C",
"J.	c #8C7344",
"K.	c #AC9C6C",
"L.	c #AA9B6B",
"M.	c #796037",
"N.	c #775B31",
"O.	c #917846",
"P.	c #978367",
"Q.	c #866C3E",
"R.	c #7A6138",
"S.	c #46341D",
"T.	c #8E7545",
"U.	c #AE9F6F",
"V.	c #A99A6B",
"W.	c #684E30",
"X.	c #4B341C",
"Y.	c #AB9B6C",
"Z.	c #765A31",
"`.	c #AB9B6B",
" +	c #AA9A75",
".+	c #8D7545",
"++	c #8D7547",
"@+	c #4A3921",
"#+	c #AA9B6C",
"$+	c #695031",
"%+	c #4A341C",
"&+	c #AB9C6C",
"*+	c #7C6239",
"=+	c #755A30",
"-+	c #917746",
";+	c #B6A981",
">+	c #A69464",
",+	c #A49465",
"'+	c #50422A",
")+	c #6A5132",
"!+	c #49331B",
"~+	c #8D7444",
"{+	c #9E8F63",
"]+	c #765C35",
"^+	c #402D18",
"/+	c #755930",
"(+	c #AD9E76",
"_+	c #7E6438",
":+	c #483821",
"<+	c #8B7344",
"[+	c #97804F",
"}+	c #49321A",
"|+	c #AA9A6C",
"1+	c #56462D",
"2+	c #55391F",
"3+	c #3B2816",
"4+	c #74582F",
"5+	c #8B7141",
"6+	c #98835F",
"7+	c #674B29",
"8+	c #8F7645",
"9+	c #6C512E",
"0+	c #3C2817",
"a+	c #6A502D",
"b+	c #917947",
"c+	c #927B4B",
"d+	c #664B2A",
"e+	c #47301A",
"f+	c #897142",
"g+	c #4F422C",
"h+	c #362111",
"i+	c #332213",
"j+	c #694E2A",
"k+	c #785C31",
"l+	c #907745",
"m+	c #A08D5D",
"n+	c #7A6549",
"o+	c #4B331B",
"p+	c #7D6337",
"q+	c #866D41",
"r+	c #64482A",
"s+	c #3C2C21",
"t+	c #413226",
"u+	c #564735",
"v+	c #574A38",
"w+	c #584B3A",
"x+	c #584B3D",
"y+	c #5A4F41",
"z+	c #5B5045",
"A+	c #544A44",
"B+	c #554C48",
"C+	c #776353",
"D+	c #8A755B",
"E+	c #9D8968",
"F+	c #A18D6C",
"G+	c #A38F6F",
"H+	c #A49172",
"I+	c #BDB297",
"J+	c #A99D92",
"K+	c #B9AC9A",
"L+	c #76592F",
"M+	c #5B4428",
"N+	c #472E18",
"O+	c #2F1E12",
"P+	c #604224",
"Q+	c #2B1B10",
"R+	c #2B1B11",
"S+	c #3C2C19",
"T+	c #3A2B19",
"U+	c #392918",
"V+	c #785B30",
"W+	c #49321D",
"  . . . . + @ # $ % & * = - ; > , ' ) ! ~ { ] ^ / ( _ : < [ } | 1 2 3 4 5 6 7 8 9 0 a b c d e   ",
"  f g h i j k l m m n o p q r r s t u v w x y z A B C D D E E E F G H I J K L M N O G P Q R S   ",
"  T U V 9 W W X Y Z `  ...+.@.#.$.%.&.*.=.-.;.>.,.'.'.).9 9 !.~.9 X {.].^./.(._.. . :.<.[.}.|.  ",
"  1.2.M . :.:.:.3.4.5.6.7.. . . 8.9.0.a.b.c.d.. . . . . . . . . 3.e.f.g.h.i.j.k.. . . '.l.m.n.  ",
"  -.(.M . . . . 3.o.p.q.r.. . . . s.A t.u.v.M . . . . . . . . . 3.e.[.w.x.y.M . . . . . z.F A.  ",
"  B.C.k.. . . . N o.D.E.F.. . . 3.E G.H.I.J.. . . . . . . . . . z.K.L.M.x.N.O.. . . . . N E P.  ",
"  Q.. . . . . . ,.o.R.S.T.. . '.r U.V.W.X.T.. . . . . . . . . 8.$.e.Y.R.x.Z.O.. . . . . ,.`. +  ",
"  .+. . . . . . ,.D ++@+.+. . ,.K.U.#+$+%+.+. . . . . . . . . '.`.U.&+*+x.=+-+. . . . . ,.K.;+  ",
"  .+. . . . . 9 >+Z ,+'+... . '.`.Z #+)+!+~+. . . . . . . . . '.&+Z {+]+^+/+-+. . . . . '.`.(+  ",
"  _+M . . . . '.&+e.b :+<+. . . [+@.A y }+... . . . . . . . . 9 m |+1+2+3+4+5+k.. . . . ).C 6+  ",
"  7+8+. . . . >.4.a 9+0+a+T.k.b+M M c+d+e+f+M . . . . . . . . . '.A g+h+i+j+k+l+. . . . !.m+n+  ",
"  o+p+O.. . . 9 E q+r+s+t+u+v+w+x+y+z+A+B+C+D+E+F+G+H+2+2+2+`.`.  I+2+2+    J+K+`.`.`.`.`.`.2+  ",
"  f L+k.. . . 8.9.M+N+O+P+  Q+R+R+P+P+P+P+P+P+P+S+T+U+  P+P+P+P+      P+  f P+V+. . . . V+P+f   ",
"  W+. . . . . . . V+W+      U.. . . . . . . P+P+. V+P+    . U.U.U..       P+V+U.. . . . . V+f   ",
"  V+U.. . . . . . V+V+  f   U.. . . . . . . . . . . . f P+. . . . . . P+  P+. U.. . . . . . P+  ",
"  . U.. . . . . . . V+  P+f U.U.. . . . . . . . . . . f P+U.. . . . . .   V+U.U.. . . . . . V+  ",
"  U.U.. . . . . . . V+  V+U.U.U.. . . . . . . . . . . f P+U.U.U.. . . .   U.U.U.. . . . . . .   ",
"  U.U.. . . . . . . V+  V+U.U.U.. . . . . . . . . . . f P+U.U.U.. . . .   . U.. . . . . . . .   ",
"  . U.. . . . . . . V+  V+U.U.. . . . . . . . . . . . f P+U.U.U.. . . .   V+U.. . . . . . . .   ",
"  V+U.. . . . . . . V+  V+U.U.. . . . . . . . . . . . f P+U.U.. . . . .   V+U.. . . . . . . V+  ",
"  V+U.. . . . . . . V+  V+U.U.. . . . . . . . . . . V+f P+U.. . . . . .   V+U.. . . . . . V+P+  ",
"  V+U.U.. . . . . V+W+  P+U.U.. . . . . . . . . . . P+f P+U.. . . . . .   . U.. . . . . . V+P+  ",
"  W+V+U.. . . . . V+f   f U.. . . . . . . . . . . V+P+  P+. U.. . . . .   U.U.. . . . . . P+W+  ",
"  f V+V+U.U.U.. . W+f     . U.U.U.U.U.U.U.U.U.U.U.P+W+  P+P+. U.U.U.U.V+  U.U.U.U.U.U.. V+f f   ",
"  W+W+P+V+. . . . . V+W+  P+P+V+. . . . . . V+P+P+f       f P+V+. . V+P+  V+. . . V+P+P+P+W+f   ",
"  V+. . . V+P+P+P+P+W+P+f V+. . V+P+P+P+P+P+P+P+P+W+f   P+V+. . . . . .   . . V+P+P+P+P+P+P+f   ",
"  . V+P+P+P+P+P+P+W+P+W+f . V+P+P+P+P+P+P+P+P+P+W+P+W+f V+P+P+P+P+P+P+P+  . P+P+P+P+P+P+P+P+W+  ",
"  . P+P+P+P+P+P+P+P+W+W+f . P+P+P+W+W+P+P+P+P+P+P+W+P+f . P+P+P+P+P+P+P+  V+P+P+P+P+P+P+P+P+P+  ",
"  V+P+P+P+P+P+P+P+W+P+f f P+P+P+W+W+W+P+P+P+W+P+W+P+W+  f P+W+P+W+P+W+P+  P+P+P+W+W+P+P+P+P+P+  ",
"  P+P+P+P+P+W+P+W+P+W+f f W+W+W+W+W+f P+P+W+W+W+W+W+f     W+W+W+P+W+P+P+  P+P+W+W+W+W+P+P+P+W+  ",
"    f P+P+W+P+W+P+W+W+    f W+W+W+f     f W+W+f           f W+W+f f f W+  f W+W+f       f W+W+  ",
"      f                     f f                                       f                         ",
"  . V+P+f   f V+. . . V+. . . V+f       f V+. . . . . . V+P+P+f     V+. . . . V+f       V+. .   ",
"  . P+P+P+  W+. . . . . . . . . V+f   V+. . . . . . . . . . . V+f   . . . . . . . V+P+  . . V+  ",
"  V+P+P+P+  . V+P+P+P+P+P+P+P+P+P+P+f . V+P+P+P+P+P+P+P+P+P+P+P+f V+. P+P+P+P+P+P+P+P+  V+P+P+  ",
"  P+P+P+P+  . P+P+P+P+P+P+P+P+P+P+P+f . P+P+P+P+P+P+P+P+P+P+P+P+f . V+P+P+P+P+P+P+P+P+  P+P+P+  ",
"  W+P+W+P+  . P+P+P+P+P+P+P+P+P+P+W+f V+W+W+W+P+P+P+P+P+P+P+P+P+f . P+P+W+P+P+P+P+P+W+  P+W+P+  ",
"  P+W+P+W+  V+W+P+P+P+P+P+P+P+W+W+W+  f W+f W+f W+P+P+P+P+W+W+f   f P+P+W+W+W+P+P+P+f   P+W+W+  ",
"  W+W+W+    W+f f W+W+W+W+W+W+f       f f W+f W+f W+f W+W+f         W+W+f   f   f P+f   f W+W+  ",
"                                  f P+. . . . . . V+P+P+    f f f         f   f                 ",
"  W+V+. . . . V+W+  V+. . . . W+  P+V+. V+V+V+V+V+V+V+V+    f V+. . V+P+. V+f       f V+. . V+  ",
"  V+. V+P+P+P+P+P+  . P+. . V+W+  V+. V+V+V+V+V+V+V+V+V+    V+. . . . . P+P+P+f   V+. . . P+P+  ",
"  . P+P+P+P+P+P+W+  . P+P+P+P+P+  . V+V+V+V+V+V+V+V+V+P+    . V+P+P+P+P+P+P+P+f   . V+P+P+P+P+  ",
"  . P+P+P+P+P+W+W+  V+P+P+W+P+P+  . V+V+V+P+P+V+V+V+V+P+    P+P+P+P+P+P+P+P+P+f   . P+P+P+P+P+  ",
"  V+P+P+f P+P+P+f   f P+P+W+P+f   . V+V+V+W+P+P+V+V+V+P+    P+W+W+P+P+P+P+P+f f   V+P+P+f P+f   ",
"  f P+P+  f P+f W+    W+W+W+W+    . V+P+W+W+P+P+V+V+P+W+    f W+W+P+P+P+P+f W+f   f P+f W+f W+  ",
"    f f     f   f     W+W+W+f           f f f f f f         f f f W+W+W+f W+f       f f f W+f   ",
"                        f f                 f f f f f f f                                       "};
