/* XPM */
static char * lava_rock_r_6_xpm[] = {
"31 80 10 1",
" 	c #523040",
".	c #442745",
"+	c #402341",
"@	c #2D1836",
"#	c #3A1E3B",
"$	c #973724",
"%	c #633B43",
"&	c #C65139",
"*	c #C67639",
"=	c #CAA64D",
" .+.@...##########@$$$$$$$$$$$$",
"..+@   .#  ...##  @$$$$$$$$$$$$",
"  .@    .%    #  %@$$$$$$$$$$$$",
"   @%   #.%%  # %.@$$$$$$$$$$$$",
"    #%%..#....#...@$$$$$$$$$$$$",
"    @...####.#..##@$$$$$$$$$$$$",
"    @..##   #.  .@$$$$$$$$$$$$$",
"    @.## %% .%  .@$$$$$$$$$$$$$",
"%  %@## %% .. %.  #$$$$$$$$$$$$",
" %% # #.  ..#...  @$$$$$$$$$$$$",
".  @% ##...##..#..@$$$$$$$$$$$$",
"..@@..#.#####.###@$$$$$$$$$$$$$",
"...@#...#.  ###  @$$$$$$$$$$$$$",
"..@@#..#.  ..#  .@$$$$$$$$$$$$$",
"#@@.##.##...##...@$$$$$$$$$$$$$",
"..@.##############@$$$$$$$$$$$$",
"##@##..##   ##     #$$$$$$$$$$$",
"  @##...#  .#%    .@$$$$$$$$$$$",
" %@######..## %%%..@$$$$$$$$$$$",
"%.@ .#..#..##.....#@$$$$$$$$$$$",
"..@  #...#.##...##@$$$$$$$$$$$$",
"##@% #..##   #..#.@$$$$$$$$$$$$",
".@...####   %#.##.@$$$$$$$$$$$$",
".@#..#  . %%.#.#..@$$$$$$$$$$$$",
"  ##.# %.....#.#..@$$$$$$$$$$$$",
"  @#.#..#....###.#@$$$$$$$$$$$$",
"..@#######..## ###@$$$$$$$$$$$$",
"#@..#  .##..#  .#  #$$$$$$$$$$$",
" @..#  .#  .# .#  .@$$$$$$$$$$$",
".@..#...#.  ####..#@$$$$$$$$$$$",
".@#.##..#...#...##@$$$$$$$$$$$$",
"##@##############@$$$$$$$$$$$$$",
"   # ############@#$$$$$$$$$$$$",
"  .@  ###.  ###   @$$$$$$$$$$$$",
"%..@..##.  .##   .@$$$$$$$$$$$$",
"..#@####...###  ..@$$$$$$$$$$$$",
"##@#.#.##.##.#...@&$$$$$$$$$$$$",
"#.@#.#..#.##.####@$*$$$$$$$$$$$",
"#.@###..###..##..@*$*$$$$$$$$$$",
"..@###.##....#.#.@$*$*$$$$$$$$$",
"..@##..###..##.#.@*$$=$$$$$$$$$",
".#@##.##.##.####.@&*$$*$$$$$$$$",
"##@##.#..########@=*$$*$$$$$$$$",
"#  @############..@=**$*$$$$$$$",
"  .@############.#@*$$*$*$$$$$$",
"..#@##############$*$$$*=$$$$$$",
"##@##############$=**$*$*$$$$$$",
"#@#*$=*$##$*=$##$=*$$*$$$$$$$$$",
"#@*$$$**=**$**=***$$$$*$$$$$$$$",
"  @$$*$$*$$$$$*$$$*$$*$*$$$$$$$",
" .@$**$$=*$$$$*$$*$**$*$$$$$$$$",
"..@*$$*$*$*$$&***$$$$*$$$$$$$$$",
".@=$$$$*$$$***$$$$$*$$$$$$$$$$$",
"#@*$$$$*$$$$*$$$$**$$$$$$$$$$$$",
".@&*$$*=*$**$$$$$$$$$$$$$$$$$$$",
".@*$**$$$*$$$$$$$$$$$$$$$$$$$$$",
".@*$$*$$$*$$$$$$$$$$$$$$$$$$$$$",
".@*$$$=$*$*$$$$$$$$$$$$$$$$$$$$",
"#@=*$$**$$*$$$$$$$$$$$$$$$$$$$$",
"..@=**$$*$*$$$$$$$$$$$$$$$$$$$$",
".#@*$$*$$*$$$$$$$$$$$$$$$$$$$$$",
"#$*$$$$**$$$$$$$$$$$$$$$$$$$$$$",
"$*$*$$*$$$$$$$$$$$$$$$$$$$$$$$$",
"*$$*$*$$$$$$$$$$$$$$$$$$$$$$$$$",
"=$*$*$*$$$$$$$$$$$$$$$$$$$$$$$$",
"&*$$=$*$$$$$$$$$$$$$$$$$$$$$$$$",
"*$$*$*$$$$$$$$$$$$$$$$$$$$$$$$$",
"$*=$$$$$$$$$$$$$$$$$$$$$$$$$$$$",
"*$$*$$$$$$$$$$$$$$$$$$$$$$$$$$$",
"$**$$$$$$$$$$$$$$$$$$$$$$$$$$$$",
"$$$$$$$$$$$$$$$$$$$$$$$$$$$$$$$",
"$$$$$$$$$$$$$$$$$$$$$$$$$$$$$$$",
"$$$$$$$$$$$$$$$$$$$$$$$$$$$$$$$",
"$$$$$$$$$$$$$$$$$$$$$$$$$$$$$$$",
"$$$$$$$$$$$$$$$$$$$$$$$$$$$$$$$",
"$$$$$$$$$$$$$$$$$$$$$$$$$$$$$$$",
"$$$$$$$$$$$$$$$$$$$$$$$$$$$$$$$",
"$$$$$$$$$$$$$$$$$$$$$$$$$$$$$$$",
"$$$$$$$$$$$$$$$$$$$$$$$$$$$$$$$",
"$$$$$$$$$$$$$$$$$$$$$$$$$$$$$$$"};
