/* XPM */
static char *_e30afbd72914987d54fbfaef5d158c9fFgkdu7Ta0PAV0Jv[] = {
/* columns rows colors chars-per-pixel */
"33 32 7 1 ",
"  c None",
". c #322C43",
"X c #B5422D",
"o c #E87838",
"O c #A36F4E",
"+ c #F0B989",
"@ c white",
/* pixels */
"                                 ",
"                                 ",
"                                 ",
"                                 ",
"                                 ",
"                                 ",
"                                 ",
"                                 ",
"                                 ",
"                                 ",
"          ..XX       ..          ",
"          ...XX.    ..X.         ",
"          .OO.X......X+.         ",
"          .+O.XXooooXX+.         ",
"          ..+XXXXXoooXX.         ",
"           .XXXXXXXooXX.         ",
"         . .XXXX..XXXX..         ",
"        .+..XXXX@..XX.@.         ",
"       .++.XXXXX@..XX.@.         ",
"       .+++XX+++X@@XX...         ",
"      .O+++XX++++XXXX...         ",
"      .O+++XXX+++++++++.         ",
"      .O++XXXXO+++++++O.         ",
"       .O+XXXXOOO+++O..          ",
"       .O+XXXXX..OOO.            ",
"        .XXXXX....O.             ",
"        ..XXXX....O.             ",
"          .XXXX..XO.             ",
"         ...XXXXXXX..            ",
"         ......XXX....           ",
"         .... ........           ",
"          ...     ...            "
};
