/* XPM */
static char *_d9ed8c6b7b94bb6bd44f10b3b654a30udzh82cA33mvjoRZ[] = {
/* columns rows colors chars-per-pixel */
"33 32 7 1 ",
"  c None",
". c #322C43",
"X c #B5422D",
"o c #E87838",
"O c #A36F4E",
"+ c #F0B989",
"@ c white",
/* pixels */
"                                 ",
"                                 ",
"                                 ",
"                                 ",
"                                 ",
"                                 ",
"                                 ",
"                                 ",
"                                 ",
"                                 ",
"          ..XX       ..          ",
"          ...XX.    ..X.         ",
"          .OO.X......X+.         ",
"          .+O.XXooooXX+.         ",
"          ..+XXXXXoooXX.         ",
"           .XXXXXXXooXX.         ",
"         . .XXXX..XXXX..         ",
"        .+..XXXX@..XX.@.         ",
"       .++.XXXXX@..XX.@.         ",
"       .+++XX+++X@@XX...         ",
"      .O+++XX+++++XXX...         ",
"      .O+++XX++++++++++.         ",
"      .O++XXXO++++++++..         ",
"       .O+XXXX..O+++O.           ",
"       .O+XXX....OOO.            ",
"        .XXXX....XOO.            ",
"        ...XXX..XXX.             ",
"           .XXXX....             ",
"            .XX.....             ",
"            ..X....              ",
"            ....                 ",
"            ....                 "
};
