/* XPM */
static char *_afaa8efa6224571a6fd03685ac3171dl1Dg7pVDv0yF1CVA[] = {
/* columns rows colors chars-per-pixel */
"33 32 7 1 ",
"  c None",
". c #322C43",
"X c #B5422D",
"o c #E87838",
"O c #A36F4E",
"+ c #F0B989",
"@ c white",
/* pixels */
"                                 ",
"                                 ",
"                                 ",
"                                 ",
"                                 ",
"                                 ",
"                                 ",
"                                 ",
"                                 ",
"         ..X.          ..        ",
"         .OXX.        .X.        ",
"         .OXXX........X+.        ",
"         .O.XXXoooooXXX+.        ",
"          ..XXXXXooooXX.         ",
"           .XXXXXXoooXX.         ",
"       .   .XXX..XXXX...         ",
"      .+.  .XXX@..XX..@.         ",
"      .++. .XXX@..XX..@.         ",
"      .+++.X+++X@@X...X.         ",
"     .O+++XX+++++XX...O.         ",
"     .O+++XXOO++++++++O.         ",
"     .O++XXOOO+++++++O..         ",
"      .O+X..OOOOO+++O...         ",
"      .O+....OOOOOOOO....        ",
"       .X....OOOOOOOO....        ",
"       .....XXXXXXXXXX...        ",
"        ..XXXXXXXXXXX....        ",
"       ....XXXXXXXXXX...         ",
"       .................         ",
"       ....                      ",
"       ...                       ",
"                                 "
};
