/* XPM */
static char * 1_xpm[] = {
"20 30 4 1",
" 	c None",
".	c #94E724",
"+	c #95E724",
"@	c #93E723",
"                    ",
"                    ",
"                    ",
"                    ",
"                    ",
"                    ",
"      ......        ",
"    ........        ",
"    .+@  ...        ",
"         ...        ",
"         ...        ",
"         ...        ",
"         ...        ",
"         ...        ",
"         ...        ",
"         ...        ",
"         ...        ",
"         ...        ",
"         ...        ",
"         ...        ",
"         ...        ",
"         ...        ",
"         ...        ",
"         ...        ",
"    ............    ",
"    ............    ",
"                    ",
"                    ",
"                    ",
"                    "};
