/* XPM */
static char * 3_xpm[] = {
"20 30 11 1",
" 	c None",
".	c #94E724",
"+	c #93E724",
"@	c #93E624",
"#	c #94E624",
"$	c #95E724",
"%	c #94E823",
"&	c #94E824",
"*	c #95E723",
"=	c #93E723",
"-	c #94E723",
"                    ",
"                    ",
"                    ",
"                    ",
"                    ",
"                    ",
"      .+....@       ",
"    ..........      ",
"    ++      ...     ",
"             ...    ",
"             #..    ",
"             $..    ",
"             ..#    ",
"            ...     ",
"       ......%      ",
"       .......      ",
"            ...     ",
"             ...    ",
"              ..    ",
"              ...   ",
"              ..%   ",
"              ..    ",
"             ..&    ",
"   .*      #...     ",
"   ...........      ",
"     +$=..-.        ",
"                    ",
"                    ",
"                    ",
"                    "};
