/* XPM */
static char * 4_xpm[] = {
"20 30 9 1",
" 	c None",
".	c #94E724",
"+	c #93E624",
"@	c #95E624",
"#	c #94E823",
"$	c #93E724",
"%	c #94E723",
"&	c #94E824",
"*	c #94E725",
"                    ",
"                    ",
"                    ",
"                    ",
"                    ",
"                    ",
"           ...      ",
"          ....      ",
"         .....      ",
"        +.. ..      ",
"        ..  ..      ",
"       @.#  ..      ",
"      $..   ..      ",
"      ..    ..      ",
"     ...    ..      ",
"    %..     ..      ",
"    ..      ..      ",
"   ...      ..      ",
"  &..       ..      ",
"  *..............   ",
"  *..............   ",
"            ..      ",
"            ..      ",
"            ..      ",
"            ..      ",
"            ..      ",
"                    ",
"                    ",
"                    ",
"                    "};
