/* XPM */
static char * 7_xpm[] = {
"20 30 10 1",
" 	c None",
".	c #93E723",
"+	c #94E724",
"@	c #95E724",
"#	c #93E623",
"$	c #94E824",
"%	c #94E623",
"&	c #94E624",
"*	c #93E824",
"=	c #94E825",
"                    ",
"                    ",
"                    ",
"                    ",
"                    ",
"                    ",
"   .++++++++++++    ",
"   .++++++++++++    ",
"             +++    ",
"             ++@    ",
"            +++     ",
"            ++@     ",
"           #++      ",
"           +++      ",
"           +++      ",
"          $++       ",
"          +++       ",
"         +++        ",
"         $++        ",
"         ++%        ",
"        +++         ",
"        +++         ",
"       &++          ",
"       $++          ",
"       ++*          ",
"      =++           ",
"                    ",
"                    ",
"                    ",
"                    "};
