/* XPM */
static char * 8_xpm[] = {
"20 30 12 1",
" 	c None",
".	c #94E725",
"+	c #94E724",
"@	c #94E624",
"#	c #93E724",
"$	c #95E623",
"%	c #95E723",
"&	c #93E824",
"*	c #95E724",
"=	c #94E823",
"-	c #94E825",
";	c #93E723",
"                    ",
"                    ",
"                    ",
"                    ",
"                    ",
"                    ",
"       .++++@       ",
"     ++++++++++     ",
"    +++@    @++#    ",
"    ++#      $++    ",
"   %++        ++    ",
"   #++        ++    ",
"    ++.      &++    ",
"    *++=    +++     ",
"      +++++++.      ",
"      +++++++.      ",
"    -++#    +++#    ",
"    ++       +++    ",
"   +++        +++   ",
"   ++*        ;++   ",
"   ++.        +++   ",
"   +++        ++.   ",
"   .++       @++    ",
"    ++++    ;+++    ",
"     ;++++++++.     ",
"       $++++@       ",
"                    ",
"                    ",
"                    ",
"                    "};
