/* XPM */
static char * 9_xpm[] = {
"20 30 12 1",
" 	c None",
".	c #95E623",
"+	c #94E724",
"@	c #94E723",
"#	c #94E725",
"$	c #93E724",
"%	c #94E824",
"&	c #94E823",
"*	c #95E824",
"=	c #95E724",
"-	c #94E624",
";	c #93E723",
"                    ",
"                    ",
"                    ",
"                    ",
"                    ",
"                    ",
"       .++++        ",
"     @+++++++#      ",
"    +++@    +++     ",
"   $++       +++    ",
"   %++       ++%    ",
"   +++        ++    ",
"   ++.        ++&   ",
"   +++        ++*   ",
"   +++       #++#   ",
"   %++       +++#   ",
"    %+++    ++++=   ",
"     ++++++++ +++   ",
"       +++++  ++@   ",
"              ++    ",
"             -++    ",
"             +++    ",
"            +++     ",
"    %      +++      ",
"    +++++++++       ",
"      %++;+         ",
"                    ",
"                    ",
"                    ",
"                    "};
